<svg xmlns="http://www.w3.org/2000/svg">
  <defs>
    <symbol id="icon-hangul" viewBox="0 0 24 24">
      <text x="12" y="18" font-family="sans-serif" font-size="16" font-weight="700" text-anchor="middle" fill="currentColor">가</text>
    </symbol>
    <symbol id="icon-conversation" viewBox="0 0 24 24">
      <path d="M21 15a2 2 0 0 1-2 2H7l-4 4V5a2 2 0 0 1 2-2h14a2 2 0 0 1 2 2z" fill="none" stroke="currentColor" stroke-width="2" stroke-linecap="round" stroke-linejoin="round"/>
    </symbol>
    <symbol id="icon-grammar" viewBox="0 0 24 24">
      <path d="M4 7V4h16v3" fill="none" stroke="currentColor" stroke-width="2" stroke-linecap="round" stroke-linejoin="round"/>
      <path d="M9 20h6" fill="none" stroke="currentColor" stroke-width="2" stroke-linecap="round" stroke-linejoin="round"/>
      <path d="M12 4v16" fill="none" stroke="currentColor" stroke-width="2" stroke-linecap="round" stroke-linejoin="round"/>
    </symbol>
    <symbol id="icon-vocabulary" viewBox="0 0 24 24">
      <path d="M4 19.5A2.5 2.5 0 0 1 6.5 17H20" fill="none" stroke="currentColor" stroke-width="2" stroke-linecap="round" stroke-linejoin="round"/>
      <path d="M6.5 2H20v20H6.5A2.5 2.5 0 0 1 4 19.5v-15A2.5 2.5 0 0 1 6.5 2z" fill="none" stroke="currentColor" stroke-width="2" stroke-linecap="round" stroke-linejoin="round"/>
    </symbol>
    <symbol id="icon-writing" viewBox="0 0 24 24">
      <path d="M17 3a2.828 2.828 0 1 1 4 4L7.5 20.5 2 22l1.5-5.5L17 3z" fill="none" stroke="currentColor" stroke-width="2" stroke-linecap="round" stroke-linejoin="round"/>
    </symbol>
    <symbol id="icon-topik" viewBox="0 0 24 24">
      <path d="M22 10v6M2 10l10-5 10 5-10 5z" fill="none" stroke="currentColor" stroke-width="2" stroke-linecap="round" stroke-linejoin="round"/>
      <path d="M6 12v5c3 3 9 3 12 0v-5" fill="none" stroke="currentColor" stroke-width="2" stroke-linecap="round" stroke-linejoin="round"/>
    </symbol>
    <symbol id="icon-culture" viewBox="0 0 24 24">
      <circle cx="12" cy="12" r="10" fill="none" stroke="currentColor" stroke-width="2"/>
      <line x1="2" y1="12" x2="22" y2="12" fill="none" stroke="currentColor" stroke-width="2"/>
      <path d="M12 2a15.3 15.3 0 0 1 4 10 15.3 15.3 0 0 1-4 10 15.3 15.3 0 0 1-4-10 15.3 15.3 0 0 1 4-10z" fill="none" stroke="currentColor" stroke-width="2"/>
    </symbol>
    <symbol id="icon-ai" viewBox="0 0 24 24">
      <rect x="3" y="11" width="18" height="10" rx="2" fill="none" stroke="currentColor" stroke-width="2"/>
      <circle cx="9" cy="16" r="1" fill="currentColor"/>
      <circle cx="15" cy="16" r="1" fill="currentColor"/>
      <path d="M8 11V7a4 4 0 0 1 8 0v4" fill="none" stroke="currentColor" stroke-width="2"/>
    </symbol>
    <symbol id="icon-speech" viewBox="0 0 24 24">
      <path d="M12 1a3 3 0 0 0-3 3v8a3 3 0 0 0 6 0V4a3 3 0 0 0-3-3z" fill="none" stroke="currentColor" stroke-width="2" stroke-linecap="round" stroke-linejoin="round"/>
      <path d="M19 10v2a7 7 0 0 1-14 0v-2" fill="none" stroke="currentColor" stroke-width="2" stroke-linecap="round" stroke-linejoin="round"/>
      <line x1="12" y1="19" x2="12" y2="23" fill="none" stroke="currentColor" stroke-width="2" stroke-linecap="round" stroke-linejoin="round"/>
      <line x1="8" y1="23" x2="16" y2="23" fill="none" stroke="currentColor" stroke-width="2" stroke-linecap="round" stroke-linejoin="round"/>
    </symbol>
  </defs>
</svg>
